<svg width="153" height="50" viewBox="0 0 153 50" fill="none" xmlns="http://www.w3.org/2000/svg">
<path d="M45.0123 0.198712H52.3051V38.7048C52.3051 40.4786 52.5707 41.6091 53.1009 42.0955C53.6312 42.5839 54.2943 42.8276 55.0902 42.8276C55.9739 42.8276 56.8022 42.7397 57.5761 42.5619C58.349 42.3852 59.0236 42.1645 59.5978 41.8988L60.6583 47.6667C59.5978 48.1091 58.3375 48.4846 56.8796 48.7941C55.4206 49.1037 54.1175 49.2585 52.9681 49.2585C50.4926 49.2585 48.5484 48.562 47.1344 47.1647C45.7193 45.7685 45.0134 43.8295 45.0134 41.3477V0.198712H45.0123ZM67.3067 8.02167V0H74.5994V8.02167H67.3067ZM67.3067 48.3967V13.7236H74.5994V48.3967H67.3067ZM84.1219 38.3513C84.1219 36.1613 84.7515 34.2464 86.0117 32.6023C87.271 30.9603 89.005 29.6906 91.2159 28.7923C93.4258 27.8949 95.9892 27.4452 98.906 27.4452C100.453 27.4452 102.032 27.5561 103.646 27.7767C105.259 27.9985 106.684 28.352 107.922 28.8372V26.6619C107.922 24.269 107.193 22.3969 105.734 21.0477C104.275 19.6996 102.176 19.0251 99.4363 19.0251C97.491 19.0251 95.6576 19.3681 93.9341 20.0531C92.2105 20.7382 90.3761 21.6993 88.4319 22.9365L85.9793 18.0305C88.2771 16.4836 90.5874 15.3343 92.9071 14.5833C95.2278 13.8324 97.6688 13.4559 100.233 13.4559C104.874 13.4559 108.531 14.6691 111.205 17.0944C113.879 19.5197 115.216 22.9616 115.216 27.418V40.2004C115.216 41.0318 115.359 41.6206 115.647 41.971C115.935 42.3203 116.431 42.5159 117.138 42.5598V48.3936C116.475 48.5264 115.879 48.6143 115.348 48.6592C114.818 48.7031 114.375 48.7251 114.022 48.7251C112.474 48.7251 111.304 48.3496 110.508 47.5977C109.712 46.8468 109.248 45.963 109.116 44.9454L108.917 42.9562C107.414 44.9015 105.492 46.4033 103.149 47.4649C100.806 48.5254 98.4417 49.0556 96.0551 49.0556C93.6684 49.0556 91.7012 48.5839 89.8898 47.6437C88.0773 46.7024 86.6633 45.4213 85.6468 43.8012C84.6291 42.1812 84.1219 40.3625 84.1219 38.3482V38.3513ZM106.199 40.4294C106.729 39.8647 107.148 39.301 107.458 38.7351C107.766 38.1704 107.922 37.6705 107.922 37.2354V33.3239C106.685 32.846 105.38 32.4872 104.011 32.2477C102.641 32.0103 101.293 31.8901 99.9665 31.8901C97.3143 31.8901 95.1598 32.4119 93.5021 33.4557C91.8445 34.4984 91.0162 35.9333 91.0162 37.7583C91.0162 38.7582 91.2912 39.7141 91.8445 40.626C92.3967 41.5401 93.1926 42.2785 94.2311 42.8432C95.2686 43.4091 96.5623 43.6914 98.1091 43.6914C99.6559 43.6914 101.225 43.3881 102.684 42.7795C104.143 42.1708 105.313 41.3885 106.198 40.4315L106.199 40.4294ZM152.309 37.9246C152.229 36.2303 151.784 34.8571 150.968 33.7956C150.904 33.7098 150.84 33.6293 150.77 33.5488C149.729 32.3481 148.261 31.3661 146.363 30.5995C145.473 30.2397 144.492 29.881 143.43 29.516C142.218 29.1081 140.899 28.6898 139.467 28.2725C137.917 27.7903 136.615 27.3553 135.553 26.9589C134.491 26.5677 133.697 26.0845 133.166 25.5166C132.636 24.9488 132.372 24.2083 132.372 23.2859C132.372 22.149 132.694 21.2642 133.332 20.6315C133.97 19.9987 134.78 19.5595 135.75 19.3231C136.726 19.0815 137.74 18.9581 138.801 18.9581C140.656 18.9581 142.394 19.2907 144.007 19.9559C145.268 20.4704 146.511 21.2213 147.734 22.2076C147.852 21.9608 147.964 21.7139 148.077 21.4682C148.79 19.8921 149.417 18.2668 149.948 16.5997C148.795 15.7631 147.545 15.1042 146.194 14.6158C145.995 14.5457 145.798 14.4767 145.599 14.417C143.62 13.7738 141.487 13.457 139.196 13.457C136.499 13.457 134.124 13.8753 132.07 14.7067C130.016 15.5382 128.413 16.7441 127.265 18.3212C126.113 19.8973 125.539 21.8007 125.539 24.0315C125.539 25.8712 125.962 27.3824 126.799 28.5674C127.641 29.7471 128.901 30.7449 130.58 31.5543C132.258 32.3638 134.333 33.1419 136.811 33.8866C137.68 34.123 138.489 34.3478 139.234 34.5674C140.006 34.7871 140.714 34.9962 141.352 35.2002C142.612 35.5913 143.572 36.0525 144.236 36.5786C144.901 37.1036 145.228 37.9142 145.228 39.0081C145.228 40.4828 144.59 41.5976 143.309 42.3538C142.027 43.1152 140.37 43.4906 138.338 43.4906C136.306 43.4906 134.348 43.0943 132.338 42.2952C131.813 42.0861 131.287 41.8497 130.767 41.5767C129.282 40.7997 127.807 39.759 126.338 38.4507L123.619 43.3568C124.086 43.8337 124.58 44.2844 125.094 44.7028C126.627 45.9526 128.365 46.9283 130.312 47.6364C132.269 48.3496 134.312 48.7941 136.441 48.9719C137.154 49.0357 137.872 49.0629 138.601 49.0629C139.33 49.0629 140.076 49.0305 140.772 48.9719C143.931 48.6927 146.531 47.7922 148.58 46.2747C150.242 45.0364 151.352 43.4708 151.904 41.5778C152.135 40.8112 152.263 39.9964 152.307 39.1221C152.318 38.9182 152.323 38.7142 152.323 38.5051C152.323 38.2959 152.318 38.1139 152.307 37.9257L152.309 37.9246ZM3.41888 50C2.82902 49.5231 2.24544 48.9939 1.64198 48.3894C1.06886 47.8163 0.5292 47.218 0 46.5686L4.63416 41.9334L4.42813 41.652C-0.828313 34.4503 -0.0669341 24.6465 6.23954 18.3411C9.63019 14.9504 14.1388 13.0825 18.9351 13.0825C22.7818 13.0825 26.4516 14.2769 29.5463 16.5359L29.8276 16.742L31.0544 15.5141L34.4827 18.9351L33.3124 20.1065L33.3156 20.1127L12.4603 40.968L12.9142 41.2347C13.8178 41.766 14.7684 42.1708 15.7421 42.4354C16.3696 42.6153 17.0369 42.7418 17.7198 42.8108C18.112 42.8485 18.5084 42.8684 18.8996 42.8684C19.3095 42.8684 19.7226 42.8464 20.1274 42.8046C20.6995 42.747 21.259 42.6487 21.7892 42.5117C22.3665 42.3674 22.9439 42.1749 23.5013 41.9407L23.5944 41.9009C23.7199 41.8507 23.8035 41.812 23.882 41.7744C24.0012 41.72 24.0692 41.6876 24.1319 41.6499L24.2742 41.5799C25.3891 41.0193 26.4025 40.2851 27.2925 39.394C28.8069 37.8807 29.8789 35.9814 30.3945 33.9033C30.6852 32.7194 30.7919 31.5104 30.7135 30.3035H36.9457C37.1643 35.3278 35.2619 40.2265 31.6934 43.795C28.3007 47.1888 23.7889 49.0577 18.9937 49.0577H18.9926C15.1272 49.0577 11.4416 47.8518 8.33647 45.5708L8.05514 45.3637L3.41888 50ZM18.9215 19.3127C18.5586 19.3127 18.1947 19.3304 17.8317 19.3639C16.6761 19.4633 15.5288 19.7425 14.4233 20.1933L14.2277 20.2738C14.2277 20.2738 13.7299 20.507 13.6598 20.5415L13.5521 20.597C13.4392 20.6545 13.3241 20.7131 13.2154 20.7789C12.2668 21.3019 11.3778 21.9712 10.5861 22.764C9.49736 23.8517 8.64813 25.1088 8.06141 26.4998C7.59915 27.5927 7.3084 28.7295 7.19754 29.8789C7.03962 31.3588 7.16407 32.8355 7.56882 34.2631C7.74347 34.9167 7.99134 35.5777 8.30405 36.2199L8.39399 36.4019C8.51113 36.6309 8.63349 36.8631 8.76736 37.0858L9.03615 37.5335L25.3545 21.2151L24.9017 20.9484C24.7113 20.8354 24.521 20.7246 24.3192 20.6231L24.1278 20.529C23.5546 20.2435 22.9355 19.9987 22.3048 19.8074C21.2004 19.479 20.0625 19.3127 18.9215 19.3127Z" fill="white"/>
</svg>
